<svg width="147" height="58" viewBox="0 0 147 58" fill="none" xmlns="http://www.w3.org/2000/svg">
<path d="M14 28.4999V27.4999H13.8926L13.7876 27.5227L14 28.4999ZM81 28.4999L81.6667 27.7546L81.382 27.4999H81V28.4999ZM96.5 31L97.3378 31.546L97.3378 31.546L96.5 31ZM106 22V21H105.99L105.98 21.0002L106 22ZM2.49727 44.5737C2.65403 42.4574 3.44002 39.1146 5.28002 36.081C7.10869 33.066 9.94386 30.405 14.2124 29.4771L13.7876 27.5227C8.85614 28.5948 5.60798 31.6837 3.56998 35.0438C1.54332 38.3851 0.679303 42.0423 0.502732 44.426L2.49727 44.5737ZM14 29.4999H81V27.4999H14V29.4999ZM80.3333 29.2452C80.6527 29.5309 81.036 29.9279 81.4997 30.4179C81.9535 30.8973 82.4736 31.454 83.0344 32.0168C84.1508 33.1371 85.4949 34.3508 86.9921 35.1736C88.5001 36.0022 90.248 36.4787 92.1047 35.9749C93.95 35.4741 95.6994 34.0596 97.3378 31.546L95.6622 30.4539C94.1775 32.7318 92.7832 33.7184 91.5809 34.0447C90.3899 34.3678 89.1862 34.0971 87.9553 33.4208C86.7137 32.7385 85.5316 31.6893 84.4511 30.6051C83.9136 30.0656 83.4176 29.5347 82.9523 29.043C82.4969 28.562 82.058 28.1046 81.6667 27.7546L80.3333 29.2452ZM97.3378 31.546C98.909 29.1354 100.093 27.03 101.471 25.4429C102.8 23.9126 104.171 23.0376 106.02 22.9998L105.98 21.0002C103.369 21.0536 101.508 22.3494 99.9609 24.1318C98.4629 25.8573 97.1272 28.2063 95.6622 30.4539L97.3378 31.546ZM111.074 25.7092C111.435 26.0679 111.695 26.4062 111.854 26.6716C111.933 26.8047 111.976 26.9024 111.997 26.9617C112.022 27.0353 111.994 26.9968 112.007 26.8854L113.993 27.1145C114.029 26.8096 113.961 26.5259 113.889 26.315C113.812 26.0899 113.701 25.8642 113.571 25.6472C113.312 25.2123 112.94 24.7442 112.484 24.2908L111.074 25.7092ZM113 30C113 33.866 109.866 37 106 37V39C110.971 39 115 34.9706 115 30H113ZM106 23C109.866 23 113 26.134 113 30H115C115 25.0294 110.971 21 106 21V23ZM113.218 15.9594C115.012 16.487 116.549 17.912 117.685 19.9945C118.818 22.0729 119.506 24.731 119.626 27.5425C119.867 33.2003 117.811 39.1554 112.974 42.1497L114.026 43.8503C119.689 40.3446 121.883 33.5497 121.624 27.4575C121.494 24.394 120.744 21.4271 119.44 19.0368C118.139 16.6505 116.238 14.763 113.782 14.0406L113.218 15.9594ZM120.236 12.4645C122.502 13.0851 124.429 15.0073 125.841 17.8564C127.246 20.6917 128.071 24.321 128.194 28.0828C128.441 35.6982 125.821 43.3132 120.064 46.0999L120.936 47.9001C127.776 44.5885 130.448 35.9031 130.193 28.0179C130.063 24.0294 129.189 20.1084 127.633 16.9685C126.084 13.8423 123.791 11.3645 120.764 10.5355L120.236 12.4645ZM126.786 5.97686C129.766 6.62933 132.309 9.24915 134.173 13.2547C136.023 17.2311 137.108 22.3866 137.271 27.7098C137.434 33.0312 136.673 38.4472 134.896 42.9436C133.118 47.4447 130.364 50.929 126.598 52.5845L127.402 54.4155C131.813 52.4767 134.861 48.4763 136.756 43.6785C138.654 38.8759 139.439 33.1787 139.27 27.6487C139.101 22.1205 137.976 16.6863 135.986 12.411C134.011 8.16477 131.084 4.87067 127.214 4.02314L126.786 5.97686ZM134.679 57.7338C141.663 51.267 146.239 39.9972 146.811 28.9266C147.384 17.8526 143.956 6.67413 134.538 0.657304L133.462 2.3427C142.044 7.82587 145.366 18.1473 144.814 28.8233C144.261 39.5026 139.837 50.2328 133.321 56.2662L134.679 57.7338Z" fill="#056FFF"/>
</svg>
